HIERARCHY
ROOT Junyuan_V1:Solving:Hips
{
	OFFSET 0.000000 0.000000 0.000000
	CHANNELS 6 Xposition Yposition Zposition Xrotation Yrotation Zrotation
	JOINT Junyuan_V1:Solving:Spine
	{
		OFFSET 0.000000 -8.943189 2.778120
		CHANNELS 6 Xposition Yposition Zposition Xrotation Yrotation Zrotation
		JOINT Junyuan_V1:Solving:Spine1
		{
			OFFSET 0.000000 -9.944814 1.753542
			CHANNELS 6 Xposition Yposition Zposition Xrotation Yrotation Zrotation
			JOINT Junyuan_V1:Solving:Spine2
			{
				OFFSET 0.000000 -10.059801 0.880121
				CHANNELS 6 Xposition Yposition Zposition Xrotation Yrotation Zrotation
				JOINT Junyuan_V1:Solving:Spine3
				{
					OFFSET 0.000000 -10.098228 0.000000
					CHANNELS 6 Xposition Yposition Zposition Xrotation Yrotation Zrotation
					JOINT Junyuan_V1:Solving:Neck
					{
						OFFSET 0.000000 -12.983437 -1.298342
						CHANNELS 6 Xposition Yposition Zposition Xrotation Yrotation Zrotation
						JOINT Junyuan_V1:Solving:Neck1
						{
							OFFSET 0.000000 -8.085114 -0.707354
							CHANNELS 6 Xposition Yposition Zposition Xrotation Yrotation Zrotation
							JOINT Junyuan_V1:Solving:Head
							{
								OFFSET 0.000000 -7.992695 -1.409326
								CHANNELS 6 Xposition Yposition Zposition Xrotation Yrotation Zrotation
								JOINT Junyuan_V1:Solving:HeadEnd
								{
									OFFSET 0.000000 -9.728081 0.000002
									CHANNELS 6 Xposition Yposition Zposition Xrotation Yrotation Zrotation
									End Site
									{
										OFFSET 0.000000 -9.728081 0.000002
									}
								}
							}
						}
					}
					JOINT Junyuan_V1:Solving:RightShoulder
					{
						OFFSET 0.000000 -9.273884 -6.154356
						CHANNELS 6 Xposition Yposition Zposition Xrotation Yrotation Zrotation
						JOINT Junyuan_V1:Solving:RightArm
						{
							OFFSET -19.110832 -0.000008 0.000000
							CHANNELS 6 Xposition Yposition Zposition Xrotation Yrotation Zrotation
							JOINT Junyuan_V1:Solving:RightForeArm
							{
								OFFSET -27.916382 -0.000008 0.000000
								CHANNELS 6 Xposition Yposition Zposition Xrotation Yrotation Zrotation
								JOINT Junyuan_V1:Solving:RightHand
								{
									OFFSET -21.757072 -0.000008 0.000000
									CHANNELS 6 Xposition Yposition Zposition Xrotation Yrotation Zrotation
									JOINT Junyuan_V1:Solving:RightHandThumb1
									{
										OFFSET -3.656471 2.766285 -2.718907
										CHANNELS 6 Xposition Yposition Zposition Xrotation Yrotation Zrotation
										End Site
										{
											OFFSET -5.307442 0.000000 -5.356520
										}
									}
									JOINT Junyuan_V1:Solving:RightHandMiddle1
									{
										OFFSET -9.750572 -0.000004 0.062504
										CHANNELS 6 Xposition Yposition Zposition Xrotation Yrotation Zrotation
										End Site
										{
											OFFSET -7.540642 -0.000004 0.000000
										}
									}
								}
							}
						}
					}
					JOINT Junyuan_V1:Solving:LeftShoulder
					{
						OFFSET 0.000000 -9.273884 -6.154356
						CHANNELS 6 Xposition Yposition Zposition Xrotation Yrotation Zrotation
						JOINT Junyuan_V1:Solving:LeftArm
						{
							OFFSET 19.110832 -0.000008 0.000000
							CHANNELS 6 Xposition Yposition Zposition Xrotation Yrotation Zrotation
							JOINT Junyuan_V1:Solving:LeftForeArm
							{
								OFFSET 27.916382 -0.000008 0.000000
								CHANNELS 6 Xposition Yposition Zposition Xrotation Yrotation Zrotation
								JOINT Junyuan_V1:Solving:LeftHand
								{
									OFFSET 21.757072 -0.000008 0.000000
									CHANNELS 6 Xposition Yposition Zposition Xrotation Yrotation Zrotation
									JOINT Junyuan_V1:Solving:LeftHandThumb1
									{
										OFFSET 3.656471 2.766285 -2.718907
										CHANNELS 6 Xposition Yposition Zposition Xrotation Yrotation Zrotation
										End Site
										{
											OFFSET 5.307442 0.000000 -5.356520
										}
									}
									JOINT Junyuan_V1:Solving:LeftHandMiddle1
									{
										OFFSET 9.750572 -0.000004 0.062504
										CHANNELS 6 Xposition Yposition Zposition Xrotation Yrotation Zrotation
										End Site
										{
											OFFSET 7.540642 -0.000004 0.000000
										}
									}
								}
							}
						}
					}
				}
			}
		}
	}
	JOINT Junyuan_V1:Solving:RightUpLeg
	{
		OFFSET -8.521003 0.000000 0.000000
		CHANNELS 6 Xposition Yposition Zposition Xrotation Yrotation Zrotation
		JOINT Junyuan_V1:Solving:RightLeg
		{
			OFFSET 0.000000 41.622898 -0.000006
			CHANNELS 6 Xposition Yposition Zposition Xrotation Yrotation Zrotation
			JOINT Junyuan_V1:Solving:RightFoot
			{
				OFFSET 0.000000 37.258389 -0.000006
				CHANNELS 6 Xposition Yposition Zposition Xrotation Yrotation Zrotation
				JOINT Junyuan_V1:Solving:RightForeFoot
				{
					OFFSET 0.000000 3.234154 -0.000000
					CHANNELS 6 Xposition Yposition Zposition Xrotation Yrotation Zrotation
					JOINT Junyuan_V1:Solving:RightToeBase
					{
						OFFSET 0.000000 0.000000 -12.665958
						CHANNELS 6 Xposition Yposition Zposition Xrotation Yrotation Zrotation
						JOINT Junyuan_V1:Solving:RightToeBaseEnd
						{
							OFFSET 0.000000 0.000000 -2.833065
							CHANNELS 6 Xposition Yposition Zposition Xrotation Yrotation Zrotation
							End Site
							{
								OFFSET 0.000000 -2.833061 0.000002
							}
						}
					}
				}
			}
		}
	}
	JOINT Junyuan_V1:Solving:LeftUpLeg
	{
		OFFSET 8.521003 0.000000 0.000000
		CHANNELS 6 Xposition Yposition Zposition Xrotation Yrotation Zrotation
		JOINT Junyuan_V1:Solving:LeftLeg
		{
			OFFSET 0.000000 41.622898 -0.000006
			CHANNELS 6 Xposition Yposition Zposition Xrotation Yrotation Zrotation
			JOINT Junyuan_V1:Solving:LeftFoot
			{
				OFFSET 0.000000 37.258389 -0.000006
				CHANNELS 6 Xposition Yposition Zposition Xrotation Yrotation Zrotation
				JOINT Junyuan_V1:Solving:LeftForeFoot
				{
					OFFSET 0.000000 3.234154 -0.000000
					CHANNELS 6 Xposition Yposition Zposition Xrotation Yrotation Zrotation
					JOINT Junyuan_V1:Solving:LeftToeBase
					{
						OFFSET 0.000000 0.000000 -12.665958
						CHANNELS 6 Xposition Yposition Zposition Xrotation Yrotation Zrotation
						JOINT Junyuan_V1:Solving:LeftToeBaseEnd
						{
							OFFSET 0.000000 0.000000 -4.326123
							CHANNELS 6 Xposition Yposition Zposition Xrotation Yrotation Zrotation
							End Site
							{
								OFFSET 0.000000 -4.326126 0.000000
							}
						}
					}
				}
			}
		}
	}
}
MOTION
Frames: 4
Frame Time: 0.041667
1.443718 55.902767 -88.042320 88.259424 175.497107 1.712882 0.000001 -8.943187 2.778119 8.726399 0.015023 -0.433695 -0.000000 -9.944814 1.753549 -1.570666 0.060758 0.027549 0.000001 -10.059781 0.880118 -5.664658 1.116953 -0.666643 0.000000 -10.098235 -0.000005 -3.700701 0.266550 -0.534035 -0.000001 -12.983403 -1.298341 4.432704 -0.223797 4.227046 0.000001 -8.085111 -0.707368 -4.593131 0.513557 -1.030460 -0.000001 -7.992675 -1.409332 -2.410007 0.668211 -1.661141 -0.000001 -9.728020 0.000005 0.000000 0.000000 0.000000 -0.000002 -9.273838 -6.154348 -0.000010 22.561136 12.950016 -19.110813 0.000007 0.000005 -0.729384 -19.538987 -89.169472 -27.916368 -0.000008 0.000016 21.148593 -22.140302 8.294798 -21.757090 -0.000006 -0.000003 0.826919 2.809521 -16.408056 -3.656490 2.766284 -2.718898 -0.000002 -0.000000 -0.000004 -9.750611 0.000002 0.062510 -0.000001 0.000001 -0.000001 0.000000 -9.273834 -6.154348 -0.000008 -19.695518 -11.641028 19.110819 -0.000028 0.000004 -2.410532 34.057519 90.175586 27.916403 0.000000 -0.000004 16.583230 24.105908 -6.934629 21.757084 -0.000012 -0.000003 0.153598 -0.634987 13.598522 3.656463 2.766276 -2.718904 0.000004 0.000000 -0.000000 9.750576 -0.000003 0.062518 0.000005 0.000003 -0.000004 -8.521002 -0.000012 0.000010 1.938508 11.389634 -4.103289 -0.000001 41.622902 -0.000005 0.006983 -0.000001 0.000000 0.000000 37.258400 -0.000016 4.510571 2.802946 7.507050 0.000005 3.234154 0.000013 0.000000 -0.000001 0.000000 0.000006 -0.000009 -12.665954 -5.042517 -0.000001 -0.000001 -0.000003 -0.000008 -2.833074 -0.000000 -0.000000 -0.000001 8.521005 0.000012 0.000008 -1.134380 -1.079753 -8.608863 -0.000003 41.622894 -0.000001 5.459408 0.000002 0.000000 -0.000005 37.258408 -0.000016 3.020934 10.573482 11.911925 0.000001 3.234146 0.000001 -0.000001 -0.000000 -0.000001 -0.000001 0.000003 -12.665969 1.825748 0.000000 0.000001 -0.000000 -0.000008 -4.326107 -0.000002 -0.000000 -0.000001 
1.500545 55.873352 -88.034729 88.321770 175.512817 1.701041 -0.000001 -8.943192 2.778115 8.777312 -0.006815 -0.487154 -0.000001 -9.944839 1.753542 -1.561203 0.061193 0.020325 0.000000 -10.059808 0.880122 -5.651737 1.095911 -0.671306 0.000000 -10.098247 0.000007 -3.687586 0.261043 -0.510011 -0.000001 -12.983482 -1.298341 4.434405 -0.252096 4.265096 -0.000004 -8.085104 -0.707326 -4.576465 0.466473 -1.028134 -0.000001 -7.992651 -1.409318 -2.419914 0.661219 -1.653867 -0.000000 -9.728050 0.000009 -0.000000 0.000000 -0.000000 -0.000003 -9.273903 -6.154355 -0.000011 22.411393 12.826805 -19.110807 0.000002 0.000014 -0.605053 -20.457904 -89.361796 -27.916391 0.000001 0.000012 19.718015 -22.366431 7.766312 -21.757084 -0.000013 0.000004 0.882140 2.920946 -16.812734 -3.656490 2.766277 -2.718899 0.000001 0.000005 -0.000004 -9.750587 0.000011 0.062506 0.000004 0.000001 0.000001 0.000000 -9.273907 -6.154355 -0.000010 -19.577460 -11.602716 19.110825 -0.000010 0.000015 -2.676911 34.423648 90.657798 27.916380 -0.000006 0.000009 17.141529 24.049221 -7.164126 21.757080 -0.000002 -0.000011 0.108126 -0.434417 13.977405 3.656442 2.766274 -2.718900 0.000007 -0.000003 0.000001 9.750556 0.000001 0.062506 0.000007 0.000000 -0.000001 -8.521002 0.000008 -0.000003 2.007430 11.340226 -4.130023 -0.000002 41.622917 0.000006 0.040760 0.000001 0.000000 0.000001 37.258396 -0.000009 4.441529 2.805955 7.508761 0.000005 3.234146 0.000006 -0.000000 -0.000000 0.000000 0.000004 -0.000005 -12.665962 -4.996005 -0.000001 -0.000001 -0.000001 -0.000008 -2.833060 -0.000001 -0.000000 -0.000000 8.521002 -0.000013 -0.000005 -1.375352 -1.155983 -8.655053 0.000003 41.622917 0.000001 6.076689 0.000001 0.000001 -0.000000 37.258400 -0.000006 2.826360 10.633467 12.018280 -0.000002 3.234146 0.000006 0.000000 -0.000000 -0.000000 -0.000001 0.000010 -12.665961 1.852611 0.000000 0.000001 0.000003 -0.000015 -4.326134 -0.000000 0.000000 -0.000000 
1.552611 55.844746 -88.030899 88.384909 175.524974 1.674706 0.000001 -8.943191 2.778119 8.835335 -0.028302 -0.536047 0.000000 -9.944832 1.753537 -1.541440 0.062601 0.011842 0.000000 -10.059776 0.880109 -5.643864 1.080550 -0.680740 -0.000000 -10.098241 -0.000015 -3.678622 0.260425 -0.506504 -0.000002 -12.983479 -1.298342 4.490092 -0.325427 4.277510 0.000003 -8.085066 -0.707352 -4.582288 0.288665 -0.996250 0.000003 -7.992667 -1.409331 -2.441343 0.630163 -1.606133 0.000000 -9.728081 -0.000009 -0.000000 -0.000000 0.000000 -0.000001 -9.273888 -6.154362 -0.000009 22.293010 12.786867 -19.110821 0.000008 0.000008 -0.824095 -19.855324 -89.910336 -27.916393 0.000010 0.000011 19.901488 -21.806139 7.659198 -21.757071 -0.000015 -0.000010 0.759208 2.351916 -17.896055 -3.656460 2.766283 -2.718917 0.000001 -0.000007 0.000004 -9.750587 -0.000002 0.062498 -0.000001 -0.000000 0.000002 0.000003 -9.273888 -6.154362 -0.000005 -19.446126 -11.482303 19.110817 -0.000023 0.000019 -2.812914 35.400095 90.864124 27.916365 -0.000002 0.000001 17.018040 24.244735 -7.163659 21.757071 -0.000011 -0.000007 0.085693 -0.335243 14.337870 3.656497 2.766284 -2.718920 0.000004 -0.000007 0.000004 9.750579 -0.000002 0.062492 0.000003 -0.000000 -0.000001 -8.521000 0.000004 0.000003 2.017775 11.913595 -4.128383 -0.000001 41.622910 0.000001 0.280933 0.000000 -0.000000 -0.000002 37.258396 -0.000021 4.278740 2.206638 7.566528 -0.000003 3.234138 0.000003 0.000001 0.000000 0.000001 0.000004 -0.000002 -12.665962 -5.035485 -0.000002 0.000000 0.000000 -0.000015 -2.833071 -0.000001 -0.000000 -0.000000 8.521002 -0.000017 0.000001 -1.622695 -1.211660 -8.685799 0.000004 41.622906 -0.000004 6.710112 0.000000 0.000002 0.000005 37.258400 -0.000007 2.650335 10.681610 12.105082 0.000000 3.234146 -0.000000 0.000000 0.000000 -0.000001 0.000002 -0.000006 -12.665952 1.863967 -0.000000 -0.000000 -0.000000 -0.000008 -4.326114 -0.000000 -0.000000 -0.000001 
1.605318 55.817238 -88.025589 88.453695 175.534086 1.659499 -0.000001 -8.943168 2.778118 8.892192 -0.053138 -0.590455 -0.000000 -9.944797 1.753539 -1.525119 0.063752 0.000251 0.000000 -10.059794 0.880109 -5.630450 1.065475 -0.687762 0.000000 -10.098226 -0.000004 -3.674493 0.254555 -0.473100 -0.000000 -12.983407 -1.298331 4.468502 -0.325419 4.335470 0.000003 -8.085093 -0.707366 -4.564855 0.351538 -1.000389 -0.000001 -7.992702 -1.409328 -2.421059 0.624569 -1.582774 -0.000001 -9.728081 -0.000001 0.000000 0.000000 -0.000000 -0.000001 -9.273891 -6.154343 -0.000013 22.091036 12.627352 -19.110821 -0.000015 0.000016 -0.557120 -21.523357 -89.891621 -27.916380 -0.000001 0.000008 17.679053 -22.422360 6.931804 -21.757065 -0.000014 0.000010 0.928609 2.855415 -18.023484 -3.656442 2.766275 -2.718899 0.000003 0.000002 -0.000002 -9.750561 -0.000006 0.062513 -0.000004 0.000002 0.000004 0.000002 -9.273891 -6.154343 -0.000011 -19.309003 -11.409454 19.110815 0.000014 0.000007 -2.945691 36.667748 91.033253 27.916378 -0.000005 0.000010 16.540500 24.565204 -7.038355 21.757057 -0.000003 -0.000011 0.093110 -0.362942 14.388939 3.656444 2.766277 -2.718912 0.000004 -0.000002 0.000004 9.750557 0.000010 0.062502 -0.000001 -0.000001 -0.000000 -8.521003 0.000023 -0.000005 2.099458 11.959946 -4.150259 -0.000001 41.622879 -0.000001 0.311546 0.000004 -0.000000 0.000001 37.258377 -0.000001 4.212208 2.117684 7.560708 -0.000002 3.234154 0.000000 0.000000 -0.000001 0.000000 0.000007 -0.000009 -12.665969 -4.987018 -0.000001 -0.000000 -0.000001 -0.000008 -2.833055 -0.000000 -0.000001 -0.000000 8.521003 0.000018 -0.000004 -1.885054 -1.261797 -8.722663 -0.000007 41.622910 -0.000003 7.379612 0.000000 0.000001 0.000002 37.258396 -0.000015 2.489735 10.763265 12.222122 -0.000003 3.234146 -0.000002 0.000000 0.000000 -0.000000 -0.000001 0.000003 -12.665950 1.590755 -0.000001 0.000001 0.000003 -0.000007 -4.326115 0.000001 -0.000001 -0.000000 
